<svg width="28" height="52" viewBox="0 0 28 52" fill="none" xmlns="http://www.w3.org/2000/svg">
<g filter="url(#filter0_d_198_156294)">
<path d="M24 6L12.7934 10.9029C9.88155 12.1768 8 15.0537 8 18.2321V33.7679C8 36.9463 9.88155 39.8232 12.7934 41.0971L24 46V34.5V6Z" fill="#081F33" fill-opacity="0.85"/>
<path d="M24 6L12.7934 10.9029C9.88155 12.1768 8 15.0537 8 18.2321V33.7679C8 36.9463 9.88155 39.8232 12.7934 41.0971L24 46V34.5V6Z" fill="url(#paint0_radial_198_156294)"/>
<path d="M23.5 34.5V6.76451L12.9939 11.3609C10.264 12.5553 8.5 15.2524 8.5 18.2321V33.7679C8.5 36.7476 10.264 39.4447 12.9939 40.6391L23.5 45.2355V34.5Z" stroke="url(#paint1_linear_198_156294)" stroke-opacity="0.3"/>
<path fill-rule="evenodd" clip-rule="evenodd" d="M12.4698 20.4697C12.1769 20.7626 12.1769 21.2374 12.4698 21.5303L17.7627 26.8232C17.8603 26.9209 17.8603 27.0791 17.7627 27.1768L12.4698 32.4697C12.1769 32.7626 12.1769 33.2374 12.4698 33.5303C12.7627 33.8232 13.2376 33.8232 13.5305 33.5303L18.8234 28.2374C19.5068 27.554 19.5068 26.446 18.8234 25.7626L13.5305 20.4697C13.2376 20.1768 12.7627 20.1768 12.4698 20.4697Z" fill="url(#paint2_linear_198_156294)"/>
<path fill-rule="evenodd" clip-rule="evenodd" d="M11.1557 22.3091C10.9453 22.5195 10.9453 22.8606 11.1557 23.071L14.9578 26.873C15.0279 26.9431 15.0279 27.0568 14.9578 27.127L11.1557 30.929C10.9453 31.1394 10.9453 31.4805 11.1557 31.6909C11.3661 31.9013 11.7072 31.9013 11.9176 31.6909L15.7197 27.8889C16.2106 27.398 16.2106 26.602 15.7197 26.1111L11.9176 22.3091C11.7072 22.0987 11.3661 22.0987 11.1557 22.3091Z" fill="url(#paint3_linear_198_156294)"/>
</g>
<defs>
<filter id="filter0_d_198_156294" x="0" y="0" width="28" height="52" filterUnits="userSpaceOnUse" color-interpolation-filters="sRGB">
<feFlood flood-opacity="0" result="BackgroundImageFix"/>
<feColorMatrix in="SourceAlpha" type="matrix" values="0 0 0 0 0 0 0 0 0 0 0 0 0 0 0 0 0 0 127 0" result="hardAlpha"/>
<feOffset dx="-2"/>
<feGaussianBlur stdDeviation="3"/>
<feComposite in2="hardAlpha" operator="out"/>
<feColorMatrix type="matrix" values="0 0 0 0 0.0224826 0 0 0 0 0.0928231 0 0 0 0 0.145833 0 0 0 0.6 0"/>
<feBlend mode="normal" in2="BackgroundImageFix" result="effect1_dropShadow_198_156294"/>
<feBlend mode="normal" in="SourceGraphic" in2="effect1_dropShadow_198_156294" result="shape"/>
</filter>
<radialGradient id="paint0_radial_198_156294" cx="0" cy="0" r="1" gradientUnits="userSpaceOnUse" gradientTransform="translate(8 27) rotate(90) scale(22.5 14.873)">
<stop stop-color="#085CA7"/>
<stop offset="1" stop-color="#055AA4" stop-opacity="0"/>
</radialGradient>
<linearGradient id="paint1_linear_198_156294" x1="8" y1="26" x2="24" y2="26" gradientUnits="userSpaceOnUse">
<stop offset="0.188705" stop-color="#86CBFF"/>
<stop offset="1" stop-color="#86CBFF" stop-opacity="0"/>
</linearGradient>
<linearGradient id="paint2_linear_198_156294" x1="19.3359" y1="26" x2="10" y2="26" gradientUnits="userSpaceOnUse">
<stop stop-color="#FEFFFF"/>
<stop offset="0.447917" stop-color="#95BCDF"/>
<stop offset="1" stop-color="#0F375B" stop-opacity="0"/>
</linearGradient>
<linearGradient id="paint3_linear_198_156294" x1="16.0879" y1="26.2817" x2="11.5" y2="26.2817" gradientUnits="userSpaceOnUse">
<stop stop-color="#0088FF"/>
<stop offset="0.447917" stop-color="#0088FF"/>
<stop offset="1" stop-color="#0F375B" stop-opacity="0"/>
</linearGradient>
</defs>
</svg>
