<svg width="28" height="52" viewBox="0 0 28 52" fill="none" xmlns="http://www.w3.org/2000/svg">
<g filter="url(#filter0_d_102_311419)">
<path d="M24 6L12.7934 10.9029C9.88155 12.1768 8 15.0537 8 18.2321V33.7679C8 36.9463 9.88155 39.8232 12.7934 41.0971L24 46V34.5V6Z" fill="#081F33" fill-opacity="0.85"/>
<path d="M24 6L12.7934 10.9029C9.88155 12.1768 8 15.0537 8 18.2321V33.7679C8 36.9463 9.88155 39.8232 12.7934 41.0971L24 46V34.5V6Z" fill="url(#paint0_radial_102_311419)"/>
<path d="M23.5 34.5V6.76451L12.9939 11.3609C10.264 12.5553 8.5 15.2524 8.5 18.2321V33.7679C8.5 36.7476 10.264 39.4447 12.9939 40.6391L23.5 45.2355V34.5Z" stroke="url(#paint1_linear_102_311419)" stroke-opacity="0.3"/>
<path fill-rule="evenodd" clip-rule="evenodd" d="M19.5302 20.4697C19.8231 20.7626 19.8231 21.2374 19.5302 21.5303L14.2373 26.8232C14.1397 26.9209 14.1397 27.0791 14.2373 27.1768L19.5302 32.4697C19.8231 32.7626 19.8231 33.2374 19.5302 33.5303C19.2373 33.8232 18.7624 33.8232 18.4695 33.5303L13.1766 28.2374C12.4932 27.554 12.4932 26.446 13.1766 25.7626L18.4695 20.4697C18.7624 20.1768 19.2373 20.1768 19.5302 20.4697Z" fill="url(#paint2_linear_102_311419)"/>
<path fill-rule="evenodd" clip-rule="evenodd" d="M20.8443 22.3091C21.0547 22.5195 21.0547 22.8606 20.8443 23.071L17.0422 26.873C16.9721 26.9431 16.9721 27.0568 17.0422 27.127L20.8443 30.929C21.0547 31.1394 21.0547 31.4805 20.8443 31.6909C20.6339 31.9013 20.2928 31.9013 20.0824 31.6909L16.2803 27.8889C15.7894 27.398 15.7894 26.602 16.2803 26.1111L20.0824 22.3091C20.2928 22.0987 20.6339 22.0987 20.8443 22.3091Z" fill="url(#paint3_linear_102_311419)"/>
</g>
<defs>
<filter id="filter0_d_102_311419" x="0" y="0" width="28" height="52" filterUnits="userSpaceOnUse" color-interpolation-filters="sRGB">
<feFlood flood-opacity="0" result="BackgroundImageFix"/>
<feColorMatrix in="SourceAlpha" type="matrix" values="0 0 0 0 0 0 0 0 0 0 0 0 0 0 0 0 0 0 127 0" result="hardAlpha"/>
<feOffset dx="-2"/>
<feGaussianBlur stdDeviation="3"/>
<feComposite in2="hardAlpha" operator="out"/>
<feColorMatrix type="matrix" values="0 0 0 0 0.0224826 0 0 0 0 0.0928231 0 0 0 0 0.145833 0 0 0 0.6 0"/>
<feBlend mode="normal" in2="BackgroundImageFix" result="effect1_dropShadow_102_311419"/>
<feBlend mode="normal" in="SourceGraphic" in2="effect1_dropShadow_102_311419" result="shape"/>
</filter>
<radialGradient id="paint0_radial_102_311419" cx="0" cy="0" r="1" gradientUnits="userSpaceOnUse" gradientTransform="translate(8 27) rotate(90) scale(22.5 14.873)">
<stop stop-color="#085CA7"/>
<stop offset="1" stop-color="#055AA4" stop-opacity="0"/>
</radialGradient>
<linearGradient id="paint1_linear_102_311419" x1="8" y1="26" x2="24" y2="26" gradientUnits="userSpaceOnUse">
<stop offset="0.188705" stop-color="#86CBFF"/>
<stop offset="1" stop-color="#86CBFF" stop-opacity="0"/>
</linearGradient>
<linearGradient id="paint2_linear_102_311419" x1="12.6641" y1="26" x2="22" y2="26" gradientUnits="userSpaceOnUse">
<stop stop-color="#FEFFFF"/>
<stop offset="0.447917" stop-color="#95BCDF"/>
<stop offset="1" stop-color="#0F375B" stop-opacity="0"/>
</linearGradient>
<linearGradient id="paint3_linear_102_311419" x1="15.9121" y1="26.2817" x2="20.5" y2="26.2817" gradientUnits="userSpaceOnUse">
<stop stop-color="#0088FF"/>
<stop offset="0.447917" stop-color="#0088FF"/>
<stop offset="1" stop-color="#0F375B" stop-opacity="0"/>
</linearGradient>
</defs>
</svg>
