<?xml version="1.0" standalone="no"?><!DOCTYPE svg PUBLIC "-//W3C//DTD SVG 1.1//EN" "http://www.w3.org/Graphics/SVG/1.1/DTD/svg11.dtd"><svg t="1587717625046" class="icon" viewBox="0 0 1024 1024" version="1.1" xmlns="http://www.w3.org/2000/svg" p-id="2566" width="24" height="24" xmlns:xlink="http://www.w3.org/1999/xlink"><defs><style type="text/css"></style></defs><path d="M955.733333 178.251852h-147.911111v-147.911111c0-15.17037-15.17037-30.340741-30.340741-30.340741h-747.14074c-18.962963 0-30.340741 15.17037-30.340741 30.340741v743.348148c0 18.962963 15.17037 30.340741 30.340741 30.340741h147.911111v147.911111c0 18.962963 15.17037 30.340741 30.340741 30.34074h747.14074c15.17037 0 30.340741-15.17037 30.340741-30.34074v-747.140741c0-11.377778-15.17037-26.548148-30.340741-26.548148z m-895.051852-117.570371h682.666667v682.666667h-682.666667v-682.666667z m182.044445 864.711112v-64.474074l64.474074 64.474074h-64.474074z m151.703704 0l-117.570371-117.570371h60.681482l117.57037 117.570371h-60.681481z m151.703703 0l-117.57037-117.570371h49.303704l117.57037 117.570371h-49.303704z m136.533334 0l-117.570371-117.570371h53.096297l117.57037 117.570371h-53.096296z m144.118518 0l-117.57037-117.570371h49.303704l117.57037 117.570371h-49.303704z m98.607408-41.718519l-117.570371-117.57037v-60.681482l117.570371 117.570371v60.681481z m0-147.911111l-117.570371-117.57037v-49.303704l117.570371 117.57037v49.303704z m0-140.325926l-117.570371-117.57037v-53.096297l117.570371 117.570371v53.096296z m0-144.118518l-117.570371-117.570371v-49.303704l117.570371 117.570371v49.303704z m0-136.533334l-72.05926-72.059259h72.05926v72.059259z" p-id="2567" data-spm-anchor-id="a313x.7781069.0.i20" fill="#2ec5ad"></path></svg>