<?xml version="1.0" standalone="no"?><!DOCTYPE svg PUBLIC "-//W3C//DTD SVG 1.1//EN" "http://www.w3.org/Graphics/SVG/1.1/DTD/svg11.dtd"><svg t="1587719137978" class="icon" viewBox="0 0 1024 1024" version="1.1" xmlns="http://www.w3.org/2000/svg" p-id="1301" width="48" height="48" xmlns:xlink="http://www.w3.org/1999/xlink"><defs><style type="text/css"></style></defs><path d="M262.187 657.726l304.608-343.937 23.956 21.216-304.61 343.937z" p-id="1302" fill="#dbdbdb"></path><path d="M274.2 652.32h475.45v32H274.2z" p-id="1303" fill="#dbdbdb"></path><path d="M749.65 668.32m-56.37 0a56.37 56.37 0 1 0 112.74 0 56.37 56.37 0 1 0-112.74 0Z" p-id="1304" fill="#dbdbdb"></path><path d="M579.5 323.54m-56.37 0a56.37 56.37 0 1 0 112.74 0 56.37 56.37 0 1 0-112.74 0Z" p-id="1305" fill="#dbdbdb"></path><path d="M274.21 668.32m-56.37 0a56.37 56.37 0 1 0 112.74 0 56.37 56.37 0 1 0-112.74 0Z" p-id="1306" fill="#dbdbdb"></path><path d="M516.43 673.66c-2.17-69.97-30.28-136.37-79.1-186.99l23.03-22.22c54.35 56.34 85.63 130.28 88.07 208.2l-32 1.01z" p-id="1307" fill="#dbdbdb"></path></svg>