<?xml version="1.0" standalone="no"?><!DOCTYPE svg PUBLIC "-//W3C//DTD SVG 1.1//EN" "http://www.w3.org/Graphics/SVG/1.1/DTD/svg11.dtd"><svg t="1587717568764" class="icon" viewBox="0 0 1024 1024" version="1.1" xmlns="http://www.w3.org/2000/svg" p-id="2064" width="32" height="32" xmlns:xlink="http://www.w3.org/1999/xlink"><defs><style type="text/css"></style></defs><path d="M624.13646507 854.97173333c0-40.73171626-24.77370027-75.677696-60.07466667-90.59259732L564.0617984 261.76279893c35.3009664-14.91490134 60.07466667-49.86088107 60.07466667-90.59259733 0-54.29220694-44.01179307-98.304-98.304-98.304s-98.304 44.01179307-98.30400001 98.304c0 40.73171626 24.77370027 75.677696 60.07466667 90.59259733L487.60313173 764.379136c-35.3009664 14.91490134-60.07466667 49.86088107-60.07466666 90.59259733 0 54.29220694 44.01179307 98.304 98.304 98.304s98.304-44.01179307 98.304-98.304z m-136.53333334-683.802624c0-21.11351467 17.11581867-38.22933333 38.22933334-38.22933333s38.22933333 17.11581867 38.22933333 38.22933333-17.11581867 38.22933333-38.22933333 38.22933334-38.22933333-17.11581867-38.22933334-38.22933334z m0 683.802624c0-21.11351467 17.11581867-38.22933333 38.22933334-38.22933333s38.22933333 17.11581867 38.22933333 38.22933333-17.11581867 38.22933333-38.22933333 38.22933334-38.22933333-17.11581867-38.22933334-38.22933334z" fill="#2ec5ad" p-id="2065"></path></svg>