<svg width="28" height="28" viewBox="0 0 28 28" fill="none" xmlns="http://www.w3.org/2000/svg">
<rect x="0.352941" y="0.352941" width="27.2941" height="27.2941" rx="1.64706" fill="url(#paint0_linear_347_132069)"/>
<rect x="0.352941" y="0.352941" width="27.2941" height="27.2941" rx="1.64706" fill="url(#paint1_radial_347_132069)"/>
<rect x="0.352941" y="0.352941" width="27.2941" height="27.2941" rx="1.64706" fill="url(#paint2_radial_347_132069)" fill-opacity="0.7"/>
<rect x="0.352941" y="0.352941" width="27.2941" height="27.2941" rx="1.64706" fill="url(#paint3_radial_347_132069)"/>
<rect x="0.352941" y="0.352941" width="27.2941" height="27.2941" rx="1.64706" stroke="url(#paint4_linear_347_132069)" stroke-width="0.705882"/>
<rect x="0.352941" y="0.352941" width="27.2941" height="27.2941" rx="1.64706" stroke="url(#paint5_radial_347_132069)" stroke-width="0.705882"/>
<path d="M21.8142 24.1623H19.0748L18.5015 22.867H8.69067L8.11731 24.1623H5.37793L8.18102 20.1063C7.6289 19.9506 7.17587 19.6392 6.82195 19.172C6.46802 18.7048 6.29106 18.1668 6.29106 17.5581V8.25692C6.29106 7.88884 6.38662 7.53845 6.57774 7.20576C6.76886 6.87307 7.00245 6.56869 7.27851 6.29263C7.55457 6.01657 7.83771 5.77944 8.12793 5.58124C8.41815 5.38304 8.66944 5.23439 8.88179 5.1353C9.09415 5.0362 9.32774 4.93002 9.58256 4.81676C9.83739 4.70351 10.1418 4.60441 10.4957 4.51947C10.8496 4.43452 11.2602 4.36374 11.7274 4.30711C12.1945 4.25048 12.7396 4.22217 13.3625 4.22217C14.0703 4.22217 14.6932 4.25402 15.2312 4.31773C15.7692 4.38143 16.2399 4.46638 16.6434 4.57255C17.0468 4.67873 17.4008 4.79907 17.7052 4.93356C18.0095 5.06805 18.2891 5.20608 18.544 5.34765C18.7988 5.48922 19.0678 5.65203 19.3509 5.83607C19.634 6.02011 19.8889 6.22893 20.1154 6.46252C20.3419 6.69611 20.5295 6.96155 20.6781 7.25885C20.8268 7.55615 20.9011 7.88884 20.9011 8.25692V17.5581C20.9011 18.1668 20.7206 18.7048 20.3596 19.172C19.9986 19.6392 19.542 19.9506 18.9899 20.1063L21.8142 24.1623ZM11.5999 5.60248C11.4159 5.60248 11.2602 5.66618 11.1328 5.7936C11.0053 5.92101 10.9416 6.08382 10.9416 6.28201C10.9416 6.46606 11.0053 6.62178 11.1328 6.7492C11.2602 6.87661 11.4159 6.94032 11.5999 6.94032H15.6347C15.8187 6.94032 15.9745 6.87661 16.1019 6.7492C16.2293 6.62178 16.293 6.46606 16.293 6.28201C16.293 6.08382 16.2293 5.92101 16.1019 5.7936C15.9745 5.66618 15.8187 5.60248 15.6347 5.60248H11.5999ZM7.60766 12.2492H19.5633V8.25692H7.60766V12.2492ZM8.2872 19.1507C8.54202 19.1507 8.76146 19.0587 8.9455 18.8747C9.12954 18.6906 9.22156 18.4712 9.22156 18.2164C9.22156 17.9474 9.12954 17.7209 8.9455 17.5368C8.76146 17.3528 8.54202 17.2608 8.2872 17.2608C8.01821 17.2608 7.7917 17.3528 7.60766 17.5368C7.42362 17.7209 7.3316 17.9474 7.3316 18.2164C7.3316 18.4712 7.42362 18.6906 7.60766 18.8747C7.7917 19.0587 8.01821 19.1507 8.2872 19.1507ZM17.8857 21.5504L17.2911 20.2125H9.9011L9.28527 21.5504H17.8857ZM17.9494 18.2164C17.9494 18.4712 18.0414 18.6906 18.2254 18.8747C18.4095 19.0587 18.636 19.1507 18.905 19.1507C19.1739 19.1507 19.4005 19.0587 19.5845 18.8747C19.7685 18.6906 19.8606 18.4712 19.8606 18.2164C19.8606 17.9474 19.7685 17.7209 19.5845 17.5368C19.4005 17.3528 19.1739 17.2608 18.905 17.2608C18.636 17.2608 18.4095 17.3528 18.2254 17.5368C18.0414 17.7209 17.9494 17.9474 17.9494 18.2164Z" fill="url(#paint6_linear_347_132069)"/>
<defs>
<linearGradient id="paint0_linear_347_132069" x1="14" y1="0" x2="14" y2="28" gradientUnits="userSpaceOnUse">
<stop stop-color="#007BFF"/>
<stop offset="1" stop-color="#34A8FF"/>
</linearGradient>
<radialGradient id="paint1_radial_347_132069" cx="0" cy="0" r="1" gradientUnits="userSpaceOnUse" gradientTransform="translate(14 28) rotate(90) scale(6.125 13.3388)">
<stop stop-color="#42B3FF"/>
<stop offset="1" stop-color="#42B3FF" stop-opacity="0"/>
</radialGradient>
<radialGradient id="paint2_radial_347_132069" cx="0" cy="0" r="1" gradientUnits="userSpaceOnUse" gradientTransform="translate(27.125 0.875) rotate(100.125) scale(12.4438 27.0997)">
<stop stop-color="#42B3FF"/>
<stop offset="1" stop-color="#056BB0" stop-opacity="0"/>
</radialGradient>
<radialGradient id="paint3_radial_347_132069" cx="0" cy="0" r="1" gradientUnits="userSpaceOnUse" gradientTransform="translate(14 14.5) rotate(90) scale(13.5)">
<stop stop-color="#003C73"/>
<stop offset="1" stop-color="#0364BB" stop-opacity="0"/>
</radialGradient>
<linearGradient id="paint4_linear_347_132069" x1="14" y1="0" x2="14" y2="28" gradientUnits="userSpaceOnUse">
<stop stop-color="#09E3F1"/>
<stop offset="1" stop-color="#008CEA" stop-opacity="0"/>
</linearGradient>
<radialGradient id="paint5_radial_347_132069" cx="0" cy="0" r="1" gradientUnits="userSpaceOnUse" gradientTransform="translate(14 27.5625) rotate(90) scale(10.0625 21.9138)">
<stop stop-color="#AFDFFF"/>
<stop offset="1" stop-color="#42B3FF" stop-opacity="0"/>
</radialGradient>
<linearGradient id="paint6_linear_347_132069" x1="13.5961" y1="4.22217" x2="13.5961" y2="24.1623" gradientUnits="userSpaceOnUse">
<stop stop-color="#09E3F1"/>
<stop offset="0.750151" stop-color="white"/>
</linearGradient>
</defs>
</svg>
