<svg width="18" height="18" viewBox="0 0 18 18" fill='none'  xmlns="http://www.w3.org/2000/svg">
<path fill-rule="evenodd" clip-rule="evenodd" d="M2 6.08625C2 6.37622 2.23503 6.61125 2.525 6.61125C2.81498 6.61125 3.05 6.37622 3.05 6.08625V4.14375C3.05 3.5407 3.5407 3.05 4.14375 3.05H6.08625C6.37622 3.05 6.61125 2.81498 6.61125 2.525C6.61125 2.23503 6.37622 2 6.08625 2H4.14375C2.96162 2 2 2.96162 2 4.14375V6.08625ZM11.9137 16H13.8562C15.0382 16 16 15.0382 16 13.8562V11.9137C16 11.624 15.7648 11.3888 15.475 11.3888C15.1852 11.3888 14.95 11.624 14.95 11.9137V13.8562C14.95 14.4591 14.4591 14.95 13.8562 14.95H11.9137C11.624 14.95 11.3888 15.1852 11.3888 15.475C11.3888 15.7648 11.624 16 11.9137 16ZM4.14375 16H6.08625C6.37622 16 6.61125 15.7648 6.61125 15.475C6.61125 15.1852 6.37622 14.95 6.08625 14.95H4.14375C3.5407 14.95 3.05 14.4591 3.05 13.8562V11.9137C3.05 11.624 2.81498 11.3888 2.525 11.3888C2.23503 11.3888 2 11.624 2 11.9137V13.8562C2 15.0382 2.96162 16 4.14375 16ZM14.95 6.08625C14.95 6.37622 15.1852 6.61125 15.475 6.61125C15.7648 6.61125 16 6.37622 16 6.08625V4.14375C16 2.96162 15.0382 2 13.8562 2H11.9137C11.624 2 11.3888 2.23503 11.3888 2.525C11.3888 2.81498 11.624 3.05 11.9137 3.05H13.8562C14.4591 3.05 14.95 3.5407 14.95 4.14375V6.08625ZM7.96983 10.0302C7.69662 9.75695 7.54313 9.38639 7.54313 9C7.54313 8.61361 7.69662 8.24305 7.96983 7.96983C8.24305 7.69662 8.61361 7.54313 9 7.54313C9.38639 7.54313 9.75695 7.69662 10.0302 7.96983C10.3034 8.24305 10.4569 8.61361 10.4569 9C10.4569 9.38639 10.3034 9.75695 10.0302 10.0302C9.75695 10.3034 9.38639 10.4569 9 10.4569C8.61361 10.4569 8.24305 10.3034 7.96983 10.0302ZM9 6.61125C8.71002 6.61125 8.475 6.37622 8.475 6.08625V4.4675C8.475 4.17753 8.71002 3.9425 9 3.9425C9.28998 3.9425 9.525 4.17753 9.525 4.4675V6.08625C9.525 6.37622 9.28998 6.61125 9 6.61125ZM4.4675 9.525H6.08625C6.37622 9.525 6.61125 9.28998 6.61125 9C6.61125 8.71002 6.37622 8.475 6.08625 8.475H4.4675C4.17753 8.475 3.9425 8.71002 3.9425 9C3.9425 9.28998 4.17753 9.525 4.4675 9.525ZM9 14.0575C8.71002 14.0575 8.475 13.8223 8.475 13.5325V11.9137C8.475 11.624 8.71002 11.3888 9 11.3888C9.28998 11.3888 9.525 11.624 9.525 11.9137V13.5325C9.525 13.8225 9.28998 14.0575 9 14.0575ZM11.9137 9.525H13.5325C13.8225 9.525 14.0575 9.28998 14.0575 9C14.0575 8.71002 13.8223 8.475 13.5325 8.475H11.9137C11.624 8.475 11.3888 8.71002 11.3888 9C11.3888 9.28998 11.624 9.525 11.9137 9.525Z" />
</svg>
