<svg width="24" height="24" viewBox="0 0 24 24"  xmlns="http://www.w3.org/2000/svg">
<path d="M5.85184 5.42052C6.37071 4.93462 7.181 5.08327 7.58788 5.66618C7.99513 6.24961 7.83907 7.0451 7.34702 7.55905C5.27399 9.72432 4.94709 13.1177 6.72555 15.6754C8.75445 18.5933 12.76 19.3044 15.6778 17.2755C18.5957 15.2466 19.3068 11.2411 17.2779 8.32325C17.0932 8.05744 16.8871 7.80521 16.6631 7.56992C16.1737 7.05602 16.0196 6.26128 16.4271 5.68033C16.8335 5.1011 17.6406 4.95508 18.1569 5.43886C21.3752 8.45466 21.9756 13.4576 19.3696 17.1709C16.5145 21.2392 10.8984 22.2327 6.83013 19.3776C2.76187 16.5225 1.7788 10.9064 4.6339 6.82772C4.98757 6.31893 5.39646 5.84695 5.85184 5.42052ZM10.7206 4.28636C10.7206 3.57593 11.2965 3 12.007 3C12.7174 3 13.2933 3.57593 13.2933 4.28637V12.0046C13.2933 12.715 12.7174 13.2909 12.007 13.2909C11.2965 13.2909 10.7206 12.715 10.7206 12.0046V4.28636Z"/>
</svg>
