<svg width="18" height="18" viewBox="0 0 18 18" fill='none' xmlns="http://www.w3.org/2000/svg">
<path d="M7.09476 15.3905C5.97773 15.0579 4.98343 14.4405 4.19612 13.6224C4.48983 13.2743 4.66683 12.8245 4.66683 12.3334C4.66683 11.2289 3.7714 10.3334 2.66683 10.3334C2.60001 10.3334 2.53396 10.3368 2.46883 10.3432C2.38009 9.90932 2.3335 9.46018 2.3335 9.00012C2.3335 8.30325 2.44042 7.63135 2.63876 6.99992C2.6481 7.00005 2.65746 7.00012 2.66683 7.00012C3.7714 7.00012 4.66683 6.10468 4.66683 5.00012C4.66683 4.68302 4.59303 4.38318 4.4617 4.11679C5.23266 3.39992 6.17366 2.86342 7.21753 2.57446C7.5483 3.22281 8.2224 3.66679 9.00016 3.66679C9.77793 3.66679 10.452 3.22281 10.7828 2.57446C11.8267 2.86342 12.7677 3.39992 13.5386 4.11679C13.4073 4.38318 13.3335 4.68302 13.3335 5.00012C13.3335 6.10468 14.2289 7.00012 15.3335 7.00012C15.3429 7.00012 15.3522 7.00005 15.3616 6.99992C15.5599 7.63135 15.6668 8.30325 15.6668 9.00012C15.6668 9.46018 15.6202 9.90932 15.5315 10.3432C15.4664 10.3368 15.4003 10.3334 15.3335 10.3334C14.2289 10.3334 13.3335 11.2289 13.3335 12.3334C13.3335 12.8245 13.5105 13.2743 13.8042 13.6224C13.0169 14.4405 12.0226 15.0579 10.9056 15.3905C10.6478 14.5841 9.89216 14.0001 9.00016 14.0001C8.10816 14.0001 7.35256 14.5841 7.09476 15.3905Z"  stroke-width="1.2" stroke-linejoin="round"/>
<path d="M8.99984 11.3334C10.2885 11.3334 11.3332 10.2887 11.3332 9.00008C11.3332 7.71141 10.2885 6.66675 8.99984 6.66675C7.71117 6.66675 6.6665 7.71141 6.6665 9.00008C6.6665 10.2887 7.71117 11.3334 8.99984 11.3334Z"  stroke-width="1.2" stroke-linejoin="round"/>
</svg>
