<svg width="16" height="16" viewBox="0 0 16 16" fill="none" xmlns="http://www.w3.org/2000/svg">
<g id="icon">
<path id="Vector" d="M8 7.04013L4.15658 3.19671C3.8991 2.93923 3.4657 2.93558 3.20064 3.20064C2.93373 3.46755 2.93382 3.8937 3.19671 4.15658L7.04013 8L3.19671 11.8434C2.93922 12.1009 2.93558 12.5343 3.20064 12.7994C3.46755 13.0663 3.89369 13.0662 4.15658 12.8033L8 8.95987L11.8434 12.8033C12.1009 13.0608 12.5343 13.0644 12.7994 12.7994C13.0663 12.5325 13.0662 12.1063 12.8033 11.8434L8.95987 8L12.8033 4.15658C13.0608 3.8991 13.0644 3.4657 12.7994 3.20064C12.5324 2.93373 12.1063 2.93382 11.8434 3.19671L8 7.04013Z" fill="#3773A0"/>
</g>
</svg>
